<svg width="2600" height="447" viewBox="0 0 2600 447" fill="none" xmlns="http://www.w3.org/2000/svg">
<g clip-path="url(#clip0)">
<g clip-path="url(#clip1)">
<path d="M402.727 6.80606C398.97 3.03584 393.967 0.764552 388.656 0.417543C306.356 -4.63481 253.119 36.9532 224.851 76.0776C196.541 36.9532 143.303 -4.67657 61.0041 0.417543C55.6789 0.758377 50.6609 3.02983 46.8909 6.80606C-5.97095 59.6679 1.39143e-05 142.969 0.542829 151.111C3.82862 184.318 14.2856 216.416 31.191 245.185C56.9538 290.322 110.108 350.324 217.377 380.43L219.088 380.931L220.299 381.223L221.97 381.515C222.928 381.598 223.892 381.598 224.851 381.515C225.767 381.598 226.69 381.598 227.606 381.515L229.11 381.265L230.488 380.931L232.367 380.388C430.619 324.603 447.822 166.394 448.991 151.571C449.534 146.727 456.8 60.8788 402.727 6.80606V6.80606ZM203.055 190.904L144.18 127.436C142.245 125.278 139.9 123.526 137.282 122.284C134.663 121.041 131.823 120.332 128.928 120.198C126.033 120.064 123.139 120.508 120.417 121.503C117.695 122.499 115.198 124.027 113.073 125.997C110.947 127.968 109.235 130.341 108.036 132.98C106.837 135.619 106.176 138.471 106.09 141.368C106.005 144.265 106.497 147.151 107.538 149.856C108.579 152.561 110.148 155.032 112.154 157.124L202.888 254.914V329.864C52.5695 275.165 44.4273 153.825 44.2186 148.481C44.1979 148.091 44.1979 147.701 44.2186 147.312C44.2186 146.644 38.4981 84.1781 72.4032 43.634H75.0337C102.003 43.1953 128.506 50.7011 151.24 65.2164C173.975 79.7317 191.936 100.615 202.888 125.265V125.641L203.055 190.904ZM405.566 147.395C405.546 147.757 405.546 148.119 405.566 148.481C405.274 153.909 397.215 275.207 246.897 329.906H246.689V255.123L246.897 254.914L337.506 157.124C339.455 155.018 340.97 152.549 341.966 149.858C342.961 147.167 343.416 144.306 343.306 141.439C343.195 138.571 342.521 135.754 341.322 133.147C340.122 130.541 338.421 128.196 336.316 126.246C334.21 124.297 331.741 122.781 329.05 121.786C326.358 120.791 323.498 120.336 320.63 120.446C317.763 120.557 314.946 121.231 312.339 122.43C309.732 123.63 307.387 125.331 305.438 127.436L246.772 190.695H246.563V125.724L246.772 125.265C254.037 109.064 288.819 43.6757 374.835 43.6757H377.34C410.994 84.011 405.608 146.769 405.566 147.395V147.395Z" fill="#88B04B"/>
<path d="M812.009 17.8711C813.698 17.8611 815.371 18.1926 816.928 18.8456C818.485 19.4985 819.894 20.4595 821.07 21.6708C822.282 22.8471 823.243 24.2561 823.896 25.8132C824.549 27.3703 824.88 29.0433 824.87 30.7317V64.6367C824.837 68.0375 823.472 71.2896 821.067 73.6944C818.662 76.0992 815.41 77.4646 812.009 77.4973H659.729V174.828H802.364C804.075 174.834 805.768 175.176 807.346 175.836C808.925 176.496 810.358 177.46 811.564 178.673C812.77 179.887 813.724 181.326 814.374 182.909C815.024 184.492 815.355 186.187 815.35 187.897V221.761C815.296 225.166 813.919 228.416 811.511 230.825C809.103 233.233 805.853 234.609 802.447 234.663H659.729V343.685C659.696 347.086 658.331 350.338 655.926 352.743C653.521 355.148 650.269 356.513 646.868 356.546H608.245C604.84 356.513 601.584 355.149 599.172 352.746C596.761 350.342 595.386 347.09 595.343 343.685V30.7317C595.338 29.0403 595.676 27.3655 596.336 25.8082C596.997 24.251 597.965 22.8436 599.184 21.6708C600.36 20.4595 601.769 19.4985 603.326 18.8456C604.884 18.1926 606.557 17.8611 608.245 17.8711H812.009Z" fill="#36485C"/>
<path d="M869.005 121.382C869.049 117.981 870.425 114.733 872.837 112.336C875.25 109.939 878.506 108.585 881.907 108.563H918.151C921.566 108.563 924.844 109.908 927.274 112.307C929.705 114.707 931.092 117.967 931.136 121.382V242.471C931.136 261.539 935.201 276.85 943.329 288.402C951.457 299.954 964.735 305.674 983.163 305.563C999.865 305.563 1012.74 299.843 1021.79 288.402C1030.83 276.961 1035.29 261.651 1035.15 242.471V121.382C1035.19 117.981 1036.57 114.733 1038.98 112.336C1041.39 109.939 1044.65 108.585 1048.05 108.563H1084.34C1087.74 108.596 1090.99 109.961 1093.39 112.366C1095.8 114.771 1097.16 118.023 1097.2 121.424V343.685C1097.16 347.086 1095.8 350.338 1093.39 352.743C1090.99 355.148 1087.74 356.513 1084.34 356.546H1048.05C1044.65 356.513 1041.4 355.148 1038.99 352.743C1036.59 350.338 1035.22 347.086 1035.19 343.685V332.704C1027.12 340.568 1017.97 347.233 1008.01 352.496C995.867 358.714 982.35 361.759 968.716 361.348C952.179 361.908 935.723 358.799 920.531 352.245C908.506 346.789 898.019 338.44 890.008 327.944C882.165 317.321 876.632 305.174 873.765 292.285C870.538 278.278 868.94 263.944 869.005 249.57V121.382Z" fill="#36485C"/>
<path d="M1210.89 343.685C1210.86 347.086 1209.5 350.338 1207.09 352.743C1204.69 355.148 1201.44 356.513 1198.03 356.546H1161.75C1158.35 356.513 1155.1 355.148 1152.69 352.743C1150.29 350.338 1148.92 347.086 1148.89 343.685V30.7317C1148.88 29.0433 1149.21 27.3703 1149.86 25.8132C1150.52 24.2561 1151.48 22.8471 1152.69 21.6708C1153.86 20.4595 1155.27 19.4985 1156.83 18.8456C1158.39 18.1926 1160.06 17.8611 1161.75 17.8711H1198.03C1199.72 17.8611 1201.4 18.1926 1202.95 18.8456C1204.51 19.4985 1205.92 20.4595 1207.1 21.6708C1208.31 22.8471 1209.27 24.2561 1209.92 25.8132C1210.57 27.3703 1210.9 29.0433 1210.89 30.7317V343.685Z" fill="#36485C"/>
<path d="M1325.85 343.685C1325.8 347.09 1324.43 350.342 1322.02 352.746C1319.61 355.149 1316.35 356.513 1312.94 356.546H1276.7C1273.3 356.513 1270.04 355.149 1267.63 352.746C1265.22 350.342 1263.84 347.09 1263.8 343.685V30.7317C1263.79 29.0403 1264.13 27.3655 1264.79 25.8082C1265.45 24.251 1266.42 22.8436 1267.64 21.6708C1268.82 20.4595 1270.23 19.4985 1271.78 18.8456C1273.34 18.1926 1275.01 17.8611 1276.7 17.8711H1312.94C1314.63 17.8611 1316.31 18.1926 1317.86 18.8456C1319.42 19.4985 1320.83 20.4595 1322 21.6708C1323.22 22.8436 1324.19 24.251 1324.85 25.8082C1325.51 27.3655 1325.85 29.0403 1325.85 30.7317V343.685Z" fill="#36485C"/>
<path d="M1664.27 215.832C1662.99 226.929 1662.99 238.138 1664.27 249.236C1664.95 257.924 1667.22 266.415 1670.95 274.289C1674.08 280.8 1678.55 286.577 1684.06 291.241C1689.22 295.483 1695.12 298.713 1701.47 300.761C1707.79 302.839 1714.4 303.896 1721.06 303.893C1727.79 304 1734.51 303.356 1741.1 301.972C1745.97 300.896 1750.63 299.049 1754.92 296.502C1758.55 294.19 1761.84 291.379 1764.69 288.151C1767.56 284.934 1770.2 281.515 1772.58 277.921C1774.6 274.906 1776.82 272.032 1779.22 269.32C1780.34 267.997 1781.73 266.938 1783.31 266.216C1784.88 265.494 1786.59 265.128 1788.32 265.144H1824.69C1828.18 265.148 1831.53 266.528 1834 268.986C1835.28 270.103 1836.26 271.509 1836.88 273.085C1837.5 274.661 1837.73 276.363 1837.55 278.047C1836.75 286.53 1834.33 294.78 1830.41 302.348C1825.3 312.758 1818.21 322.075 1809.54 329.781C1798.96 339.29 1786.76 346.803 1773.5 351.953C1756.79 358.393 1738.97 361.486 1721.06 361.055C1704.88 361.3 1688.82 358.29 1673.83 352.203C1660.28 346.614 1647.9 338.526 1637.34 328.361C1627.05 318.432 1618.79 306.606 1613 293.538C1607.09 280.323 1603.47 266.206 1602.26 251.783C1601.6 245.444 1601.28 239.074 1601.3 232.701C1601.29 226.175 1601.61 219.652 1602.26 213.159C1603.22 198.725 1606.77 184.581 1612.74 171.404C1618.61 158.303 1626.87 146.409 1637.09 136.33C1647.62 126.19 1660.01 118.179 1673.58 112.738C1688.66 106.668 1704.8 103.659 1721.06 103.886C1738.95 103.403 1756.76 106.41 1773.5 112.738C1786.75 117.919 1798.96 125.443 1809.54 134.952C1818.21 142.658 1825.3 151.975 1830.41 162.385C1834.33 169.953 1836.75 178.203 1837.55 186.687C1837.73 188.371 1837.5 190.072 1836.88 191.648C1836.26 193.224 1835.28 194.63 1834 195.747C1831.53 198.205 1828.18 199.586 1824.69 199.589H1788.45C1786.72 199.596 1785.01 199.226 1783.44 198.505C1781.87 197.784 1780.47 196.729 1779.35 195.413C1776.94 192.701 1774.72 189.827 1772.71 186.812C1770.33 183.218 1767.69 179.799 1764.82 176.582C1761.98 173.344 1758.69 170.531 1755.05 168.231C1750.75 165.694 1746.07 163.875 1741.18 162.844C1734.59 161.461 1727.87 160.817 1721.14 160.924C1714.49 160.921 1707.88 161.978 1701.56 164.055C1695.21 166.104 1689.3 169.334 1684.15 173.576C1678.63 178.24 1674.16 184.017 1671.03 190.528C1667.24 198.474 1664.95 207.052 1664.27 215.832V215.832Z" fill="#36485C"/>
<path d="M1992.59 165.767C1973.52 165.767 1959.77 169.943 1951.34 178.294C1942.9 186.645 1938.73 200.396 1938.81 219.548V343.685C1938.77 347.09 1937.39 350.342 1934.98 352.746C1932.57 355.149 1929.31 356.513 1925.91 356.546H1889.66C1886.26 356.513 1883.01 355.148 1880.61 352.743C1878.2 350.338 1876.84 347.086 1876.8 343.685V121.382C1876.85 118.01 1878.2 114.787 1880.58 112.394C1882.95 110.002 1886.17 108.628 1889.54 108.563H1925.78C1929.19 108.595 1932.44 109.96 1934.85 112.363C1937.27 114.767 1938.64 118.019 1938.68 121.424V132.363C1946.46 125.045 1955.41 119.075 1965.16 114.701C1976.93 110.165 1989.5 108.076 2002.11 108.563H2005.62C2009.02 108.596 2012.27 109.961 2014.68 112.366C2017.08 114.771 2018.45 118.023 2018.48 121.424V152.907C2018.45 156.311 2017.08 159.568 2014.68 161.98C2012.27 164.391 2009.02 165.766 2005.62 165.809L1992.59 165.767Z" fill="#36485C"/>
<path d="M2113.18 17.8711C2114.87 17.8611 2116.54 18.1926 2118.1 18.8456C2119.65 19.4985 2121.06 20.4595 2122.24 21.6708C2123.45 22.8471 2124.41 24.2561 2125.06 25.8132C2125.72 27.3702 2126.05 29.0433 2126.04 30.7317V67.9771C2126.01 71.3778 2124.64 74.63 2122.24 77.0348C2119.83 79.4396 2116.58 80.805 2113.18 80.8377H2072.17C2068.77 80.8159 2065.5 79.4553 2063.09 77.0494C2060.68 74.6434 2059.31 71.385 2059.27 67.9771V30.7317C2059.26 29.0433 2059.59 27.3702 2060.25 25.8132C2060.9 24.2561 2061.86 22.8471 2063.07 21.6708C2064.25 20.4544 2065.67 19.4905 2067.23 18.8373C2068.8 18.1842 2070.48 17.8555 2072.17 17.8711H2113.18ZM2123.66 343.56C2123.63 346.961 2122.26 350.213 2119.86 352.618C2117.45 355.023 2114.2 356.388 2110.8 356.421H2074.56C2071.15 356.388 2067.89 355.024 2065.48 352.62C2063.07 350.217 2061.7 346.965 2061.65 343.56V121.382C2061.71 117.985 2063.09 114.743 2065.5 112.348C2067.91 109.954 2071.16 108.595 2074.56 108.563H2110.8C2114.2 108.596 2117.45 109.961 2119.86 112.366C2122.26 114.771 2123.63 118.023 2123.66 121.424V343.56Z" fill="#36485C"/>
<path d="M2310.01 361.348C2301.1 361.453 2292.22 360.486 2283.54 358.467C2276.51 356.797 2269.66 354.404 2263.12 351.327C2257.78 348.793 2252.74 345.669 2248.09 342.015C2244.5 339.191 2241.15 336.076 2238.07 332.704V434.252C2238.08 435.947 2237.75 437.628 2237.1 439.193C2236.45 440.758 2235.48 442.173 2234.27 443.355C2233.09 444.566 2231.68 445.527 2230.13 446.18C2228.57 446.833 2226.9 447.164 2225.21 447.154H2188.92C2187.23 447.164 2185.56 446.833 2184 446.18C2182.45 445.527 2181.04 444.566 2179.86 443.355C2178.64 442.173 2177.68 440.758 2177.03 439.193C2176.37 437.628 2176.05 435.947 2176.06 434.252V121.382C2176.1 118.003 2177.46 114.773 2179.85 112.38C2182.23 109.986 2185.46 108.617 2188.84 108.563H2225.12C2228.53 108.574 2231.8 109.924 2234.22 112.322C2236.64 114.72 2238.02 117.974 2238.07 121.382V132.363C2241.15 128.991 2244.5 125.876 2248.09 123.052C2252.74 119.398 2257.78 116.275 2263.12 113.741C2269.69 110.657 2276.56 108.264 2283.62 106.601C2292.3 104.582 2301.19 103.614 2310.1 103.719C2325.01 103.514 2339.77 106.697 2353.27 113.031C2365.76 118.993 2376.93 127.415 2386.09 137.791C2395.3 148.359 2402.57 160.474 2407.55 173.576C2412.81 187.062 2415.8 201.326 2416.4 215.79C2416.7 220.55 2416.86 226.145 2416.86 232.492C2416.86 238.839 2416.86 244.434 2416.4 249.194C2415.8 263.657 2412.81 277.921 2407.55 291.408C2402.57 304.51 2395.3 316.625 2386.09 327.192C2376.91 337.593 2365.71 346.029 2353.19 351.995C2339.69 358.342 2324.93 361.541 2310.01 361.348V361.348ZM2354.4 245.895C2355.32 237.011 2355.32 228.056 2354.4 219.172C2352.48 198.489 2346.12 183.625 2335.32 174.578C2324.19 165.396 2310.11 160.56 2295.69 160.966C2281.31 160.546 2267.29 165.487 2256.36 174.828C2245.71 184.014 2239.65 197.251 2237.98 214.412C2237.28 220.426 2236.96 226.479 2237.02 232.534C2236.99 238.548 2237.34 244.559 2238.07 250.53C2238.9 265.457 2245.49 279.48 2256.44 289.654C2267.26 299.252 2281.32 304.372 2295.77 303.976C2310.19 304.382 2324.27 299.546 2335.4 290.364C2346.14 281.401 2352.48 266.578 2354.4 245.895V245.895Z" fill="#36485C"/>
<path d="M2458.78 107.394V30.7317C2458.78 29.0403 2459.12 27.3655 2459.78 25.8082C2460.44 24.251 2461.41 22.8436 2462.63 21.6708C2463.83 20.4338 2465.27 19.4578 2466.86 18.804C2468.46 18.1502 2470.17 17.8326 2471.9 17.8711H2508.14C2509.83 17.8611 2511.5 18.1926 2513.06 18.8456C2514.61 19.4985 2516.02 20.4595 2517.2 21.6708C2518.42 22.8436 2519.39 24.251 2520.05 25.8082C2520.71 27.3655 2521.05 29.0403 2521.04 30.7317V108.563H2582.55C2585.95 108.595 2589.21 109.96 2591.62 112.363C2594.03 114.767 2595.41 118.019 2595.45 121.424V152.907C2595.4 156.312 2594.02 159.562 2591.61 161.971C2589.2 164.379 2585.95 165.755 2582.55 165.809H2520.83V266.856C2520.37 275.442 2523.18 283.884 2528.68 290.489C2533.94 296.391 2543.69 299.328 2557.91 299.3H2587.14C2590.54 299.343 2593.8 300.718 2596.2 303.129C2598.6 305.541 2599.97 308.797 2600 312.202V343.685C2599.97 347.086 2598.6 350.338 2596.2 352.743C2593.79 355.148 2590.54 356.513 2587.14 356.546H2551.81C2521.92 356.546 2498.94 349.308 2482.88 334.833C2466.82 320.358 2458.78 298.186 2458.78 268.318V107.394Z" fill="#36485C"/>
<path d="M1511.53 285.729C1511.59 284.134 1511.32 282.544 1510.73 281.058C1510.15 279.571 1509.27 278.22 1508.15 277.086C1504.74 274.208 1500.75 272.087 1496.46 270.865C1489.08 268.506 1481.56 266.595 1473.95 265.144C1464.68 263.223 1452.87 260.662 1438.5 257.461C1426.41 254.952 1414.69 250.94 1403.59 245.519C1395.19 241.404 1387.64 235.737 1381.34 228.817C1375.78 222.545 1371.75 215.07 1369.56 206.979C1367.26 198.319 1366.13 189.386 1366.22 180.423C1366.27 170.628 1368.55 160.973 1372.9 152.197C1377.55 142.7 1384.16 134.291 1392.28 127.52C1401.47 119.929 1411.93 114.021 1423.18 110.066C1436.59 105.366 1450.73 103.09 1464.93 103.344C1479.03 103.162 1493.08 104.933 1506.69 108.605C1517.79 111.613 1528.36 116.302 1538.05 122.509C1546.06 127.655 1552.9 134.427 1558.13 142.385C1562.66 149.174 1565.46 156.975 1566.27 165.099C1566.44 166.793 1566.2 168.501 1565.57 170.084C1564.95 171.666 1563.96 173.078 1562.68 174.202C1560.19 176.662 1556.83 178.042 1553.33 178.043H1516.5C1512.72 178.321 1508.94 177.385 1505.73 175.371C1503.35 173.659 1500.72 171.655 1497.84 169.4C1494.36 166.862 1490.54 164.85 1486.48 163.429C1479.49 161.379 1472.21 160.49 1464.93 160.798C1456.28 160.593 1447.67 162.009 1439.55 164.974C1436.28 165.952 1433.42 167.987 1431.44 170.76C1429.45 173.534 1428.44 176.888 1428.56 180.298C1428.45 183.456 1429.38 186.564 1431.19 189.15C1433.89 192.173 1437.35 194.409 1441.22 195.622C1447.95 198.03 1454.82 200.024 1461.8 201.593C1470.57 203.681 1482.01 206.144 1496.04 209.026C1524.43 215.066 1544.45 224.558 1556.08 237.502C1567.85 250.708 1574.11 267.923 1573.58 285.604C1573.53 295.379 1571.06 304.991 1566.4 313.58C1561.24 323.103 1554.12 331.427 1545.52 338.007C1535.5 345.68 1524.18 351.505 1512.12 355.21C1497.63 359.721 1482.52 361.906 1467.35 361.682C1452.22 361.918 1437.14 359.906 1422.59 355.711C1410.91 352.297 1399.84 347.039 1389.82 340.136C1381.54 334.455 1374.53 327.118 1369.23 318.591C1364.76 311.545 1362.13 303.491 1361.59 295.166C1361.41 293.472 1361.65 291.76 1362.27 290.176C1362.9 288.591 1363.89 287.181 1365.18 286.063C1367.66 283.606 1371 282.225 1374.49 282.222H1411.32C1415.21 281.92 1419.07 283.131 1422.09 285.604L1430.23 293.245C1433.91 296.539 1438.15 299.129 1442.76 300.886C1450.61 303.515 1458.88 304.662 1467.15 304.269C1472.12 304.25 1477.08 303.929 1482.01 303.308C1486.81 302.729 1491.53 301.681 1496.12 300.177C1500.04 298.957 1503.69 297.017 1506.9 294.456C1508.28 293.451 1509.42 292.142 1510.22 290.63C1511.03 289.117 1511.47 287.441 1511.53 285.729V285.729Z" fill="#36485C"/>
</g>
</g>
<defs>
<clipPath id="clip0">
<rect width="2600" height="447" fill="white"/>
</clipPath>
<clipPath id="clip1">
<rect width="2600" height="447.196" fill="white"/>
</clipPath>
</defs>
</svg>
